<?xml version="1.0" encoding="utf-8"?>
<!-- Generator: Adobe Illustrator 28.3.0, SVG Export Plug-In . SVG Version: 6.00 Build 0)  -->
<svg version="1.1" id="Layer_1" xmlns="http://www.w3.org/2000/svg" xmlns:xlink="http://www.w3.org/1999/xlink" x="0px" y="0px"
	 viewBox="0 0 1000 1000" style="enable-background:new 0 0 1000 1000;" xml:space="preserve">
<style type="text/css">
	.st0{fill:#3E574E;}
	.st1{font-family:'AntarcticanMono-Book';}
	.st2{font-size:37.6153px;}
	.st3{letter-spacing:7;}
</style>
<g>
	<g>
		<path class="st0" d="M597.8,582.19c6.05-4.44,10.85-8.35,16.02-11.69c13.73-8.87,27.48-17.74,41.51-26.13
			c7.51-4.49,14.57-9.42,20.97-15.38c12.72-11.84,27.46-20.03,44.73-22.71c6.45-1,13.3-1.17,19.75-0.19
			c12.13,1.83,21.14,8.6,24.91,20.63c3.9,12.45,1.01,23.79-7.68,33.48c-8.14,9.07-18.91,13.08-30.57,15.18
			c-12.74,2.3-25.15,1.08-37.21-3.64c-1.11-0.43-2.31-0.62-3.64-0.97c-1.55,3.38,0.13,5.88,1.64,8.24
			c4.79,7.49,12.33,10.78,20.5,12.91c15.81,4.12,30.81,0.81,45.41-5.32c13.78-5.78,25.23-15,35.78-25.34
			c8.43-8.26,16.46-16.91,24.82-25.24c2.32-2.31,5.03-4.34,7.83-6.05c9.73-5.97,19.86-4.78,27.53,3.67c3,3.3,4.96,7.55,7.26,11.45
			c1.04,1.76,1.74,3.71,2.9,6.26c1.72-1.44,3.09-2.57,4.43-3.73c2.5-2.16,4.81-4.59,7.51-6.46c11.15-7.74,24.45-4.04,29.89,8.45
			c1.8,4.14,2.71,8.67,4.02,13.03c1.13,3.76,2.13,7.56,3.37,11.29c2.08,6.21,6.49,10.17,12.8,11.47c7.08,1.46,14.25,2.7,21.44,3.37
			c9.47,0.88,19.02,0.92,28.5,1.75c3.41,0.3,7.01,1.26,9.99,2.89c8.31,4.55,8.77,16.25,1.13,21.86c-3.66,2.69-7.92,3.81-12.31,3.59
			c-12.81-0.63-25.63-1.3-38.4-2.45c-6.15-0.55-12.28-1.9-18.27-3.45c-16.07-4.17-26.59-14.5-32.25-29.98
			c-0.77-2.11-1.62-4.19-2.69-6.96c-1.32,1.36-2.39,2.17-3.09,3.23c-5.98,9.05-10.05,18.99-13.53,29.22
			c-1.19,3.51-2.46,7.08-4.33,10.25c-3.34,5.68-9.57,8.18-15.39,6.77c-5.79-1.41-9.5-5.84-10.3-12.54
			c-0.27-2.25-0.25-4.55-0.25-6.82c-0.03-10.56,0.08-21.13-0.07-31.69c-0.05-3.63-0.7-7.25-1.23-12.3c-2.45,1.95-3.9,2.9-5.1,4.1
			c-6.01,6-11.83,12.19-17.93,18.09c-17.09,16.53-36.52,29.15-59.76,35.29c-17.41,4.6-34.8,5.09-52.02-0.69
			c-18.64-6.25-32.85-17.32-38.87-36.94c-0.29-0.94-0.86-1.79-1.48-3.04c-1.54,0.56-3,0.79-4.09,1.54
			c-11.42,7.86-22.88,15.67-34.11,23.79c-5.09,3.68-4.95,4-2.98,9.69c3.71,10.7,5.53,21.7,4.61,32.99
			c-1.14,14.02-5.5,26.84-16.35,36.46c-8.03,7.12-17.48,10.32-28.2,7.41c-11.32-3.07-19.42-13.48-20.86-26.05
			c-1.31-11.42,0.71-22.26,5.29-32.7c4.01-9.15,9.07-17.69,15.28-25.51c1.65-2.08,2.02-3.85,0.59-6.15
			c-4.92-7.9-9.74-15.86-14.63-23.78c-0.2-0.32-0.65-0.48-1.5-1.08c-1.86,1.67-3.88,3.37-5.77,5.2
			c-10.44,10.12-21.51,19.46-34.29,26.53c-7.82,4.33-16.01,7.67-25.03,8.8c-15.7,1.96-27.99-3.37-36.82-16.53
			c-1.15-1.71-2.29-3.43-3.46-5.13c-0.09-0.13-0.38-0.14-1.42-0.48c-2.14,1.64-4.69,3.61-7.24,5.57c-5.58,4.27-11,8.78-16.79,12.75
			c-5.51,3.78-11.79,5.89-18.37,7.24c-5.67,1.16-11.14,0.71-16.55-0.98c-2.87-0.9-5.08-0.54-7.23,1.76
			c-17.45,18.63-38.66,20.65-61.66,13.35c-16.79-5.33-29.52-16.34-40.02-30.18c-1.87-2.47-3.86-4.87-5.94-7.17
			c-4.38-4.85-6.82-5.3-12.37-1.67c-3.27,2.13-6.35,4.66-9.16,7.38c-13.56,13.1-23.73,28.68-32.35,45.3
			c-4.48,8.63-8.33,17.59-12.67,26.29c-1.93,3.87-3.98,7.81-6.65,11.18c-9.12,11.51-24.3,10.27-31.17-2.7
			c-2.67-5.05-4.82-10.68-5.76-16.28c-2.57-15.29-4.89-30.66-6.32-46.09c-1.45-15.65-1.71-31.41-2.51-47.12
			c-0.08-1.62-0.31-3.22-0.47-4.88c-3.3-0.51-4.04,2.16-5.34,3.73c-6.47,7.81-12.6,15.91-19.23,23.58
			c-12.67,14.66-26.68,27.76-44.27,36.51c-7.86,3.91-16.03,6.91-24.83,7.41c-21.72,1.24-38.25-9.07-47.31-29.31
			c-6.05-13.51-8.19-27.87-7.61-42.45c1.1-27.53,7.94-53.59,22.2-77.4c8.05-13.44,17.44-25.74,31.27-33.84
			c13.51-7.91,27.79-7.31,38.9,1.72c5.73,4.66,9.6,10.81,12.53,17.52c1.65,3.79,3.13,7.67,4.5,11.57
			c2.36,6.73,0.29,13.07-5.17,16.33c-5.41,3.23-12.11,2.03-16.73-3.4c-1.83-2.16-3.05-4.88-4.35-7.44c-1.5-2.95-2.56-6.13-4.19-9
			c-3.24-5.71-6.84-6.69-12.22-2.82c-3.65,2.63-7.07,5.8-9.91,9.28c-12.71,15.59-19.73,33.86-24.21,53.23
			c-2.58,11.16-3.56,22.48-2.88,33.92c0.47,7.91,2.05,15.57,5.7,22.72c3.71,7.27,9.56,11,17.67,9.66c4.82-0.8,9.7-2.27,14.08-4.41
			c14.03-6.86,25.04-17.58,34.96-29.35c10.54-12.5,20.54-25.46,31.05-37.98c3.83-4.57,8.22-8.77,12.83-12.56
			c3-2.47,4.43-5.11,4.76-8.86c1.18-13.4,2.18-26.83,3.91-40.16c5.4-41.55,15.01-81.88,36.86-118.3
			c10.2-17.01,22.28-32.44,39.43-43.14c11-6.86,22.84-10.51,36-9.26c16.01,1.53,27.99,9.58,36.7,22.67
			c7.29,10.95,10.41,23.27,11.04,36.38c1.38,28.98-7.6,55.1-21.9,79.7c-19.02,32.73-43.93,60.02-75.59,80.99
			c-10.25,6.79-21.17,12.14-32.85,15.97c-5.61,1.84-5.65,1.91-5.76,7.84c-0.42,23.82,0.04,47.62,2.47,71.35
			c0.55,5.35,1.04,10.71,1.63,16.05c0.1,0.91,0.55,1.79,1.3,4.14c2.1-3.52,3.63-5.84,4.92-8.27c9.27-17.46,20.13-33.82,33.93-48.04
			c4.87-5.01,10.27-9.72,16.11-13.53c20.05-13.09,38.05-9.96,53.04,8.59c3.77,4.67,7.61,9.29,11.56,13.8
			c4.57,5.22,10.27,8.82,16.56,11.79c12.5,5.9,21.67,1.38,29.2-7.4c3.95-4.61,6.24-10.12,8.37-15.81
			c3.04-8.11,6.25-16.24,10.33-23.86c6.9-12.87,17.09-22.77,29.92-29.86c12.03-6.65,24.92-8.99,38.41-6.79
			c11.99,1.95,21.53,8.23,28.45,18.3c1.62,2.36,3.09,4.83,5.12,8.03c1.73-1.96,3.09-3.7,4.66-5.23c4.84-4.74,9.95-5.22,16.44-1.64
			c6.43,3.54,9.36,9.01,7.66,15.34c-0.96,3.57-2.73,6.91-4.09,10.38c-2.09,5.31-4.64,10.51-4.7,17.46c2.86-1.42,5.25-2.16,7.1-3.6
			c8.64-6.73,17.6-13.14,25.58-20.6c14.36-13.43,28.15-27.45,40.32-43.02c3.38-4.33,7.84-7.96,12.28-11.26
			c4.56-3.38,9.97-3.79,15.41-1.84c11.41,4.09,13.99,17.32,4.89,25.35c-2.94,2.6-6.21,4.84-9.08,7.5c-2.26,2.1-4.31,4.48-6.16,6.96
			c-4.8,6.44-6.32,13.62-2.92,21.04C590.63,570.05,594.18,575.64,597.8,582.19z M191.32,510.59c2.08-0.58,3.33-0.72,4.37-1.25
			c4.41-2.27,8.94-4.39,13.11-7.05c34.94-22.37,60.83-52.63,77.98-90.33c5.7-12.52,9.07-25.79,9.5-39.59
			c0.3-9.57-0.89-19.01-5.91-27.54c-3.35-5.68-8.13-9.4-14.66-10.45c-6.67-1.07-12.7,1.25-18.26,4.6
			c-10.71,6.44-18.42,15.9-25.36,26.04c-14.45,21.13-23.22,44.7-29.45,69.32c-5.13,20.29-8.13,40.95-10.37,61.72
			C191.79,500.55,191.67,505.07,191.32,510.59z M454.41,557.46c0-0.4,0.1-0.84-0.02-1.19c-0.21-0.58-0.51-1.14-0.87-1.63
			c-5.12-6.92-12.39-8.22-20.01-6.46c-17.86,4.12-28.22,16.18-33.32,33.26c-0.35,1.16-0.4,2.46-0.37,3.68
			c0.14,4.52,2.01,6.19,6.29,5.09c2.76-0.71,5.49-1.9,7.93-3.38c2.98-1.82,5.74-4.06,8.43-6.32c9.82-8.22,19.16-17.1,31.27-22.06
			C454.04,558.32,454.19,557.8,454.41,557.46z M700.62,546.41c7.57,3.57,14.42,2.98,20.99,1.87c4.56-0.78,9.04-2.85,13.12-5.14
			c1.74-0.97,3.44-4.07,3.24-5.99c-0.31-2.96-3.62-2.83-6.09-2.78C720.52,534.59,710.73,538.97,700.62,546.41z M583.38,660.16
			c6.29-4.72,8.84-15.33,5.81-22.75C584.77,644.73,582.31,651.96,583.38,660.16z"/>
	</g>
	<text transform="matrix(1 0 0 1 664.6118 687.6281)" class="st0 st1 st2 st3">matcha bar</text>
</g>
</svg>
