<?xml version="1.0" encoding="utf-8"?>
<!-- Generator: Adobe Illustrator 28.3.0, SVG Export Plug-In . SVG Version: 6.00 Build 0)  -->
<svg version="1.1" id="Layer_1" xmlns="http://www.w3.org/2000/svg" xmlns:xlink="http://www.w3.org/1999/xlink" x="0px" y="0px"
	 viewBox="0 0 1000 387.7" style="enable-background:new 0 0 1000 387.7;" xml:space="preserve">
<style type="text/css">
	.st0{fill:#3E574E;}
	.st1{enable-background:new    ;}
</style>
<g>
	<g>
		<path class="st0" d="M597.8,277.2c6-4.4,10.8-8.4,16-11.7c13.7-8.9,27.5-17.7,41.5-26.1c7.5-4.5,14.6-9.4,21-15.4
			c12.7-11.8,27.5-20,44.7-22.7c6.5-1,13.3-1.2,19.8-0.2c12.1,1.8,21.1,8.6,24.9,20.6c3.9,12.4,1,23.8-7.7,33.5
			c-8.1,9.1-18.9,13.1-30.6,15.2c-12.7,2.3-25.2,1.1-37.2-3.6c-1.1-0.4-2.3-0.6-3.6-1c-1.5,3.4,0.1,5.9,1.6,8.2
			c4.8,7.5,12.3,10.8,20.5,12.9c15.8,4.1,30.8,0.8,45.4-5.3c13.8-5.8,25.2-15,35.8-25.3c8.4-8.3,16.5-16.9,24.8-25.2
			c2.3-2.3,5-4.3,7.8-6.1c9.7-6,19.9-4.8,27.5,3.7c3,3.3,5,7.6,7.3,11.4c1,1.8,1.7,3.7,2.9,6.3c1.7-1.4,3.1-2.6,4.4-3.7
			c2.5-2.2,4.8-4.6,7.5-6.5c11.2-7.7,24.5-4,29.9,8.4c1.8,4.1,2.7,8.7,4,13c1.1,3.8,2.1,7.6,3.4,11.3c2.1,6.2,6.5,10.2,12.8,11.5
			c7.1,1.5,14.2,2.7,21.4,3.4c9.5,0.9,19,0.9,28.5,1.8c3.4,0.3,7,1.3,10,2.9c8.3,4.5,8.8,16.2,1.1,21.9c-3.7,2.7-7.9,3.8-12.3,3.6
			c-12.8-0.6-25.6-1.3-38.4-2.5c-6.2-0.5-12.3-1.9-18.3-3.5c-16.1-4.2-26.6-14.5-32.2-30c-0.8-2.1-1.6-4.2-2.7-7
			c-1.3,1.4-2.4,2.2-3.1,3.2c-6,9-10,19-13.5,29.2c-1.2,3.5-2.5,7.1-4.3,10.2c-3.3,5.7-9.6,8.2-15.4,6.8c-5.8-1.4-9.5-5.8-10.3-12.5
			c-0.3-2.2-0.2-4.5-0.2-6.8c0-10.6,0.1-21.1-0.1-31.7c0-3.6-0.7-7.2-1.2-12.3c-2.5,2-3.9,2.9-5.1,4.1c-6,6-11.8,12.2-17.9,18.1
			c-17.1,16.5-36.5,29.1-59.8,35.3c-17.4,4.6-34.8,5.1-52-0.7c-18.6-6.2-32.8-17.3-38.9-36.9c-0.3-0.9-0.9-1.8-1.5-3
			c-1.5,0.6-3,0.8-4.1,1.5c-11.4,7.9-22.9,15.7-34.1,23.8c-5.1,3.7-5,4-3,9.7c3.7,10.7,5.5,21.7,4.6,33c-1.1,14-5.5,26.8-16.3,36.5
			c-8,7.1-17.5,10.3-28.2,7.4c-11.3-3.1-19.4-13.5-20.9-26c-1.3-11.4,0.7-22.3,5.3-32.7c4-9.1,9.1-17.7,15.3-25.5
			c1.7-2.1,2-3.9,0.6-6.1c-4.9-7.9-9.7-15.9-14.6-23.8c-0.2-0.3-0.7-0.5-1.5-1.1c-1.9,1.7-3.9,3.4-5.8,5.2
			c-10.4,10.1-21.5,19.5-34.3,26.5c-7.8,4.3-16,7.7-25,8.8c-15.7,2-28-3.4-36.8-16.5c-1.1-1.7-2.3-3.4-3.5-5.1
			c-0.1-0.1-0.4-0.1-1.4-0.5c-2.1,1.6-4.7,3.6-7.2,5.6c-5.6,4.3-11,8.8-16.8,12.8c-5.5,3.8-11.8,5.9-18.4,7.2
			c-5.7,1.2-11.1,0.7-16.5-1c-2.9-0.9-5.1-0.5-7.2,1.8c-17.5,18.6-38.7,20.6-61.7,13.4c-16.8-5.3-29.5-16.3-40-30.2
			c-1.9-2.5-3.9-4.9-5.9-7.2c-4.4-4.9-6.8-5.3-12.4-1.7c-3.3,2.1-6.4,4.7-9.2,7.4c-13.6,13.1-23.7,28.7-32.4,45.3
			c-4.5,8.6-8.3,17.6-12.7,26.3c-1.9,3.9-4,7.8-6.6,11.2c-9.1,11.5-24.3,10.3-31.2-2.7c-2.7-5-4.8-10.7-5.8-16.3
			c-2.6-15.3-4.9-30.7-6.3-46.1c-1.4-15.6-1.7-31.4-2.5-47.1c-0.1-1.6-0.3-3.2-0.5-4.9c-3.3-0.5-4,2.2-5.3,3.7
			c-6.5,7.8-12.6,15.9-19.2,23.6c-12.7,14.7-26.7,27.8-44.3,36.5c-7.9,3.9-16,6.9-24.8,7.4c-21.7,1.2-38.2-9.1-47.3-29.3
			c-6.1-13.5-8.2-27.9-7.6-42.5c1.1-27.5,7.9-53.6,22.2-77.4c8-13.4,17.4-25.7,31.3-33.8c13.5-7.9,27.8-7.3,38.9,1.7
			c5.7,4.7,9.6,10.8,12.5,17.5c1.7,3.8,3.1,7.7,4.5,11.6c2.4,6.7,0.3,13.1-5.2,16.3c-5.4,3.2-12.1,2-16.7-3.4
			c-1.8-2.2-3.1-4.9-4.3-7.4c-1.5-2.9-2.6-6.1-4.2-9c-3.2-5.7-6.8-6.7-12.2-2.8c-3.7,2.6-7.1,5.8-9.9,9.3
			c-12.7,15.6-19.7,33.9-24.2,53.2c-2.6,11.2-3.6,22.5-2.9,33.9c0.5,7.9,2,15.6,5.7,22.7c3.7,7.3,9.6,11,17.7,9.7
			c4.8-0.8,9.7-2.3,14.1-4.4c14-6.9,25-17.6,35-29.4c10.5-12.5,20.5-25.5,31-38c3.8-4.6,8.2-8.8,12.8-12.6c3-2.5,4.4-5.1,4.8-8.9
			c1.2-13.4,2.2-26.8,3.9-40.2c5.4-41.6,15-81.9,36.9-118.3c10.2-17,22.3-32.4,39.4-43.1c11-6.9,22.8-10.5,36-9.3
			c16,1.5,28,9.6,36.7,22.7c7.3,11,10.4,23.3,11,36.4c1.4,29-7.6,55.1-21.9,79.7c-19,32.7-43.9,60-75.6,81
			c-10.2,6.8-21.2,12.1-32.9,16c-5.6,1.8-5.6,1.9-5.8,7.8c-0.4,23.8,0,47.6,2.5,71.4c0.6,5.4,1,10.7,1.6,16c0.1,0.9,0.6,1.8,1.3,4.1
			c2.1-3.5,3.6-5.8,4.9-8.3c9.3-17.5,20.1-33.8,33.9-48c4.9-5,10.3-9.7,16.1-13.5c20.1-13.1,38.1-10,53,8.6
			c3.8,4.7,7.6,9.3,11.6,13.8c4.6,5.2,10.3,8.8,16.6,11.8c12.5,5.9,21.7,1.4,29.2-7.4c4-4.6,6.2-10.1,8.4-15.8
			c3-8.1,6.2-16.2,10.3-23.9c6.9-12.9,17.1-22.8,29.9-29.9c12-6.6,24.9-9,38.4-6.8c12,1.9,21.5,8.2,28.5,18.3c1.6,2.4,3.1,4.8,5.1,8
			c1.7-2,3.1-3.7,4.7-5.2c4.8-4.7,10-5.2,16.4-1.6c6.4,3.5,9.4,9,7.7,15.3c-1,3.6-2.7,6.9-4.1,10.4c-2.1,5.3-4.6,10.5-4.7,17.5
			c2.9-1.4,5.2-2.2,7.1-3.6c8.6-6.7,17.6-13.1,25.6-20.6c14.4-13.4,28.2-27.4,40.3-43c3.4-4.3,7.8-8,12.3-11.3
			c4.6-3.4,10-3.8,15.4-1.8c11.4,4.1,14,17.3,4.9,25.4c-2.9,2.6-6.2,4.8-9.1,7.5c-2.3,2.1-4.3,4.5-6.2,7c-4.8,6.4-6.3,13.6-2.9,21
			C590.6,265.1,594.2,270.7,597.8,277.2z M191.3,205.6c2.1-0.6,3.3-0.7,4.4-1.2c4.4-2.3,8.9-4.4,13.1-7.1
			c34.9-22.4,60.8-52.6,78-90.3c5.7-12.5,9.1-25.8,9.5-39.6c0.3-9.6-0.9-19-5.9-27.5c-3.4-5.7-8.1-9.4-14.7-10.5
			c-6.7-1.1-12.7,1.2-18.3,4.6c-10.7,6.4-18.4,15.9-25.4,26c-14.4,21.1-23.2,44.7-29.4,69.3c-5.1,20.3-8.1,40.9-10.4,61.7
			C191.8,195.6,191.7,200.1,191.3,205.6z M454.4,252.5c0-0.4,0.1-0.8,0-1.2c-0.2-0.6-0.5-1.1-0.9-1.6c-5.1-6.9-12.4-8.2-20-6.5
			c-17.9,4.1-28.2,16.2-33.3,33.3c-0.4,1.2-0.4,2.5-0.4,3.7c0.1,4.5,2,6.2,6.3,5.1c2.8-0.7,5.5-1.9,7.9-3.4c3-1.8,5.7-4.1,8.4-6.3
			c9.8-8.2,19.2-17.1,31.3-22.1C454,253.4,454.2,252.8,454.4,252.5z M700.6,241.4c7.6,3.6,14.4,3,21,1.9c4.6-0.8,9-2.9,13.1-5.1
			c1.7-1,3.4-4.1,3.2-6c-0.3-3-3.6-2.8-6.1-2.8C720.5,229.6,710.7,234,700.6,241.4z M583.4,355.2c6.3-4.7,8.8-15.3,5.8-22.8
			C584.8,339.8,582.3,347,583.4,355.2z"/>
	</g>
	<g class="st1">
		<path class="st0" d="M666.8,363.9h2.6v1l-0.1,3.1h0.2c0.2-3.5,1.9-4.7,4-4.7c2.4,0,3.5,1.4,3.6,4.7h0.2c0.2-3.5,2-4.7,4.1-4.7
			c2.6,0,3.8,1.7,3.8,5.1v14.3h-2.6v-13.4c0-2.4-0.8-3.5-2.3-3.5c-2,0-2.9,1.7-2.9,5.3v9.6h-2.6v-11.3c0-2.4-0.8-3.5-2.3-3.5
			c-2,0-2.9,1.7-2.9,5.3v11.7h-2.6V363.9z"/>
		<path class="st0" d="M695.8,377.8c0-4,2.3-5.9,8-5.9h5.2V370c0-3.2-1.3-4.4-4.7-4.4c-3.7,0-4.8,1.1-4.9,3.8h-2.5
			c0.1-3.9,2.5-5.9,7.3-5.9h0.3c4.6,0,7.1,1.9,7.1,6.2v13.1h-2.6v-1.4l0.1-3.5h-0.2c-0.7,3.9-2.8,5.5-6.8,5.5
			C698.1,383.2,695.8,381.5,695.8,377.8z M709,373.9h-5.1c-4,0-5.4,1.2-5.4,3.7c0,2.3,1.8,3.2,4.3,3.2
			C707.2,380.8,709,378.6,709,373.9z"/>
		<path class="st0" d="M740.1,380.3v2.5c-0.9,0-1.5,0-2.2,0c-6.1,0-8.5-2.2-8.5-7.7v-9h-5.2v-2.3h5.2v-5.2h2.6v5.2h7.8v2.3h-7.8v9
			c0,4,1.4,5.1,5.8,5.1C738.6,380.3,739.4,380.3,740.1,380.3z"/>
		<path class="st0" d="M753.6,374.6V372c0-5.7,3.2-8.7,7.9-8.7h0.3c3.9,0,7.4,2,7.4,7.2h-2.4c0-3.2-1.9-4.8-5.2-4.8
			c-3.5,0-5.4,2.1-5.4,6.1v2.9c0,4,2,6.1,5.6,6.1c2.9,0,5-1.4,5-4.6h2.4c0,4.6-3.3,7-7.1,7h-0.5
			C756.7,383.2,753.6,380.3,753.6,374.6z"/>
		<path class="st0" d="M782.3,357.1h2.6v7.9l-0.1,3.9h0.2c0.6-3.7,2.7-5.5,6.2-5.5c4.1,0,6.1,2.4,6.1,7v12.3h-2.6v-11.5
			c0-3.7-1.4-5.5-4.4-5.5c-3.4,0-5.3,2.2-5.3,6.5v10.4h-2.6V357.1z"/>
		<path class="st0" d="M809.7,377.8c0-4,2.3-5.9,8-5.9h5.2V370c0-3.2-1.3-4.4-4.7-4.4c-3.7,0-4.8,1.1-4.9,3.8h-2.5
			c0.1-3.9,2.5-5.9,7.3-5.9h0.3c4.6,0,7.1,1.9,7.1,6.2v13.1h-2.6v-1.4l0.1-3.5h-0.2c-0.7,3.9-2.8,5.5-6.8,5.5
			C812,383.2,809.7,381.5,809.7,377.8z M822.9,373.9h-5.1c-4,0-5.4,1.2-5.4,3.7c0,2.3,1.8,3.2,4.3,3.2
			C821.1,380.8,822.9,378.6,822.9,373.9z"/>
		<path class="st0" d="M870.1,377.7h-0.2l0.1,3.8v1.1h-2.6v-25.6h2.6v7.9l-0.1,3.9h0.2c0.6-3.7,2.6-5.5,6-5.5c4.4,0,6.8,2.9,6.8,8.7
			v2.7c0,5.7-2.4,8.6-6.8,8.6C872.7,383.2,870.7,381.4,870.1,377.7z M880.2,374.8v-3c0-4.1-1.6-6-4.9-6c-3.6,0-5.4,2.4-5.4,6.8v1.4
			c0,4.4,1.8,6.8,5.4,6.8C878.6,380.8,880.2,378.8,880.2,374.8z"/>
		<path class="st0" d="M895.1,377.8c0-4,2.3-5.9,8-5.9h5.2V370c0-3.2-1.3-4.4-4.7-4.4c-3.7,0-4.8,1.1-4.9,3.8h-2.5
			c0.1-3.9,2.5-5.9,7.3-5.9h0.3c4.6,0,7.1,1.9,7.1,6.2v13.1h-2.6v-1.4l0.1-3.5h-0.2c-0.7,3.9-2.8,5.5-6.8,5.5
			C897.4,383.2,895.1,381.5,895.1,377.8z M908.3,373.9h-5.1c-4,0-5.4,1.2-5.4,3.7c0,2.3,1.8,3.2,4.3,3.2
			C906.6,380.8,908.3,378.6,908.3,373.9z"/>
		<path class="st0" d="M925.7,363.9h2.6v1.4l-0.1,3.9h0.2c0.7-4.4,3.4-5.9,6.2-5.9c3.1,0,5.7,1.8,5.7,6.2v2.3h-2.6v-1.4
			c0-3.1-1.5-4.6-4.1-4.6c-3.5,0-5.3,2.7-5.3,6.9v10h-2.6V363.9z"/>
	</g>
</g>
</svg>
