<?xml version="1.0" encoding="utf-8"?>
<!-- Generator: Adobe Illustrator 28.3.0, SVG Export Plug-In . SVG Version: 6.00 Build 0)  -->
<svg version="1.1" id="Layer_1" xmlns="http://www.w3.org/2000/svg" xmlns:xlink="http://www.w3.org/1999/xlink" x="0px" y="0px"
	 viewBox="0 0 1000 377" style="enable-background:new 0 0 1000 377;" xml:space="preserve">
<style type="text/css">
	.st0{fill:#2B7A45;}
	.st1{font-family:'AntarcticanMono-Semibold';}
	.st2{font-size:81.2126px;}
	.st3{letter-spacing:8;}
</style>
<g>
	<path class="st0" d="M423.5,210.2c-3.2,0.2-6.2,0.3-9.9,0.5c-0.1,2.1-0.1,4.2-0.2,6.2c-0.3,8.9-0.4,17.7-0.9,26.6
		c-0.2,3.2-1,6.4-1.9,9.4c-1,3.5-3.5,5.8-7.2,6.3c-5.4,0.6-10.9,1.4-16.4,1.6c-10.3,0.3-20.7,0.4-31,0.4c-3.2,0-6.5-0.4-9.6-1
		c-5.2-1.1-6.6-2.7-6.5-7.9c0.2-16.8,0-33.6,0.9-50.3c1.3-22.7,3-45.4,6.9-67.8c4.4-25.1,9.5-50.1,19.3-73.8
		c3.2-7.6,6.7-15.1,10.9-22.1c9.3-15.2,22.3-25.7,40.1-29.7c15.7-3.5,29,1.5,40.5,11.9c6.6,5.9,10.8,13.6,14.1,21.8
		c7.5,18.8,11.9,38.4,14.7,58.5c5.5,39.1,6.4,78.4,5.5,117.9c-0.3,12.1,0,24.2,0,36.3c0,5.6-1.5,7.1-7.2,7
		c-5.8-0.1-11.6-0.6-17.4-0.6c-6.8,0-13.5,0.5-20.3,0.5c-5,0-10-0.2-15-0.7c-5.6-0.6-8.5-3.5-8.8-9.2c-0.4-6.8-0.4-13.5-0.4-20.3
		c0-6.3,0.2-12.6,0.3-18.9C423.9,211.9,423.7,211.2,423.5,210.2z M437.3,136.7c2.5-0.1,4.2-2.4,3.8-4.9c-0.5-2.7-1-5.2-1.9-7.5
		c-2.9-8.2-10.3-13-16.9-13.6c-13-1.3-18.9,16.5-20.1,22.9c-0.5,2.6,1.6,4.9,4.2,4.8C416.6,137.9,426.8,137.3,437.3,136.7z"/>
	<path class="st0" d="M998.9,261c0,6.1-1.2,7.5-7.3,7.5c-6.3,0.1-12.7-0.4-19-0.5c-7.5,0-14.9,0.1-22.4,0.2c-2.5,0-5.1,0.4-7.6,0.3
		c-4.8-0.1-5.4-0.7-5.5-5.7c-0.4-25.5-0.8-50.9-1.2-76.4c-0.2-12.9-0.5-25.8-1-38.7c-0.3-6.8-1-13.7-3.7-20.1
		c-3.4-8.1-7.5-9-13.6-2.8c-6.3,6.3-9.4,14.4-10.8,23c-1.7,10.4-3.2,21-3.8,31.5c-1.1,18.1-1.6,36.2-2.1,54.3
		c-0.2,5.5,0.3,11.1,0.5,16.6c0.1,3.7,0.4,7.5,0.4,11.2c0,6.2-0.5,6.7-6.4,6.8c-15.5,0.1-31.1,0.3-46.6,0.5
		c-6.3,0.1-7.5-0.9-7.7-7.5c-0.6-16.8-1.3-33.6-1.6-50.4c-0.4-26.3-1.1-55.5,5-81c5-20.9,9.1-41.7,17.4-61.6
		c5.4-12.8,13.4-24.7,21.8-35.7c5.5-7.2,11.8-13.6,19.5-18.5c15.1-9.6,34.9-6.1,50.7,1.4c6.1,2.9,10.6,7.6,14.6,13
		c6.7,8.9,11,19.1,13.9,29.8c6.8,24.5,11.8,49.5,13.5,74.9C995.8,133.3,1002.6,232.2,998.9,261z"/>
	<path class="st0" d="M818.7,165.1c-0.2,7,0.8,8.5-6.2,8.5l-62.4,0.3c-3.8,0.2-5.1,1.5-5.6,5.2c-0.2,1.8,0.5,14.1,0.4,15.9
		c-0.3,4.9,1.1,6.7,5.8,6.9c2.8,0.1,5.7-0.2,8.6-0.2c6.2-0.2,12.4-0.2,18.6-0.5c9.7-0.4,19.3-0.9,29-1.4c8.2-0.4,9.1,0.5,9.1,8.9
		c0.1,12.6,0.2,25.2,0.3,37.9c0,3.3-0.1,6.6-0.4,9.8c-0.4,4.5-2.6,7.7-7.1,8.7c-3.6,0.8-7.2,1.7-10.8,1.8
		c-14.1,0.5-28.2,1.1-42.3,1.1c-18.2-0.1-36.5-0.7-54.7-1.2c-4-0.1-7.9-0.5-11.9-0.8c-4.9-0.4-6.5-1.9-6.6-7.2
		c-0.2-19.7-0.5-39.3-0.3-59l1.3-180.1c0-3.8,0.8-4.8,4.2-5.9c2.7-0.9,7.4-1.6,10.2-1.7c11.6-0.3,23.3-0.8,34.9-0.8
		c21-0.2,41.9-0.1,62.9,0c3.3,0,6.7,0.3,10,0.8c6.9,1,10.1,3.9,11.6,11.1c0.8,3.8,1.5,7.8,1.5,11.7c-0.1,10.8-0.4,21.6-0.9,32.4
		c-0.3,7-1.6,7.9-8.2,9.1c-9.3,1.7-18.6,1.7-28,2c-9.8,0.3-19.7,0.5-29.5,0.8c-5.1,0.2-6.4,1-6.7,6.1c-0.5,9.1-0.6,18.3-0.5,27.5
		c0,3.1,6.7,3.2,16,2.3l52.4-0.7c6-0.6,3.8,1.1,4.3,10.2L818.7,165.1z"/>
	<path class="st0" d="M593.3,14.7c7.6-1,15.3-0.8,22.7,1c11.5,2.8,21.3,8.5,29.3,18.3c4,4.9,8.6,9.2,12.4,14.2
		c6.2,8.2,11,17.1,13,27.5c2.6,13.6-0.4,25.5-8.9,36.2c-11.7,14.7-25.5,10-34.1,1.8c-6.8-6.4-12.8-13.6-19.3-20.4
		c-1.8-1.9-3.7-3.7-5.7-5.2c-2.6-1.9-5.7-3.9-8.7-1.5c-2.7,2.2-2.8,5.7-1.9,9.1c1.1,4.6,3.4,8.6,6.4,11.9
		c6.3,6.9,12.7,13.7,19.3,20.3c8,8,16.3,15.5,24.2,23.6c8.3,8.5,13.9,18.7,16.3,30.5c2.1,10.3,1,20.5-1.5,30.6
		c-3.7,14.8-11.1,27.4-22.3,37.5c-9,8.2-19.7,13.2-31.3,15.8c-19.1,4.3-37.6,2.6-55.2-6.5c-20.1-10.5-33.1-27.1-38.1-50
		c-2-8.9-1.8-17.9,0.3-26.8c0.3-1.1,0.6-2.2,1-3.3c4.3-12.7,13.2-18,26-15.7c6.6,1.2,12.9,3.6,18.6,7.3c7,4.5,13.7,9.5,20.7,14
		c3.4,2.3,7.1,4.3,10.8,6.1c2.5,1.2,5.7,1.8,7.5-0.8c1.9-2.8-0.6-5.4-2.5-7.2c-3.9-3.5-8-7-12.4-9.9c-19.9-13-36.4-29.5-49.3-49.7
		c-11.4-17.8-11.4-36.9-4.2-56c11.1-29.6,32.5-46.8,62.7-52.4C590.3,15.1,591.8,14.9,593.3,14.7z"/>
	<path class="st0" d="M155.6,166.4c1.7,12.9,1.3,25.9-0.8,38.7c-1,5.8-2.2,11.5-3.7,17.2c-4.5,17.6-15.3,29.7-32.6,35.3
		c-23.8,7.7-46.5,5.5-67.6-8.7c-17.4-11.7-29.6-27.6-37.6-46.7c-7.9-18.8-12.2-38.5-13.2-59c-2-41.1,10.6-77.5,35.3-109.9
		c6.4-8.4,14.1-15.5,23.9-19.9c21.4-9.8,42.2-7.5,61.8,4.5c16.4,10,28.3,24.5,36.3,42c3.6,7.7,2.5,14-3.5,20
		c-1.6,1.6-3.4,3.2-5.3,4.5c-9.7,7-19.4,14-29.1,20.9c-1.5,1.1-3,2.2-4.5,3.1c-2.7,1.5-4.1,1.2-5.7-1.6c-2.4-4-4.4-8.2-7-12.1
		c-2.5-3.7-5.1-7.4-8.2-10.5C90.5,80.5,87,80.7,84,85c-3.1,4.5-5.8,9.4-7.5,14.5C69.7,119,68,139.3,70,159.9
		c0.6,6.1,1.4,12.2,2.5,18.2c0.8,4.4,2.2,8.7,5.1,12.3c4.4,5.4,9.3,5.8,13.7,0.4c2.5-3,4.5-6.6,5.9-10.3c2-5.3,3.6-10.7,4.7-16.2
		c0.8-4.2,3.1-6,7-6.4c3.8-0.4,7.6-1,11.4-1c8.8-0.2,17.6-0.1,26.4,0c6,0.1,7.7,1.3,8.7,7.3C155.4,164.8,155.5,165.6,155.6,166.4z"
		/>
	<path class="st0" d="M309.6,261.9"/>
	<path class="st0" d="M265.5,260.6c-7.3-0.6-9.9-3.9-10-11.3c-0.3-20.3-0.2-40.7-0.9-61c-0.1-2.1,0-4,0-6.9h-13.9
		c-0.2,2-0.5,3.9-0.5,5.8c0,14.2,0.2,28.3,0.1,42.5c-0.1,6.3-0.3,12.7-1.2,19c-1.1,7.6-4,10.3-11.6,11.7c-12.2,2.3-24.6,2.8-37,1.9
		c-9.2-0.7-12.9-4.6-13.1-13.6c-0.7-26.4-1.8-52.8-1.7-79.1L177,13.9c0-2.5,1.8-4.7,4.2-5.3c3.9-0.9,8.6-1.9,11.5-1.9
		c12.1,0,23.7-0.2,35.7,0c6.8,0.1,9.8,2.8,10.5,9.8c0.5,4.9,0.6,9.8,0.8,14.6c0.6,17.2,1.2,34.4,1.6,51.6c0.1,5.8,0.1,11.5-0.2,17.3
		c-0.1,1.4-0.1,2.3-0.1,4.1h11.5c0.1-1.3,0.3-2.5,0.3-3.8c0.3-21,0.4-42,0.9-63c0.2-7.8,1.1-15.6,1.9-23.4c0.5-4.8,1.9-6.6,6.1-6.9
		c15.2-0.9,30.4-2,45.5,0c0.7,0.1,1.3,0.2,2,0.3c7.5,1.6,9.4,3.6,9.7,11.3c0.2,4.1,0.1,8.1,0,12.2c-1.3,57.5-1.5,115,0.1,172.5
		c0.3,10.3,0.9,20.5,0.8,30.8l0,16.5c0,5.6-4.6,10.2-10.2,10.2h-0.2C309.4,261,282.6,263.7,265.5,260.6z"/>
</g>
<text transform="matrix(1 0 0 1 441.264 375.9985)" class="st0 st1 st2 st3">matcha bar</text>
</svg>
